<?xml version="1.0" encoding="utf-8"?>
<!-- Generator: Adobe Illustrator 28.1.0, SVG Export Plug-In . SVG Version: 6.00 Build 0)  -->
<svg version="1.1" id="Camada_1" xmlns="http://www.w3.org/2000/svg" xmlns:xlink="http://www.w3.org/1999/xlink" x="0px" y="0px"
	 viewBox="0 0 800 800" style="enable-background:new 0 0 800 800;" xml:space="preserve">
<style type="text/css">
	.st0{fill:#FFFFFF;}
</style>
<path class="st0" d="M720.4,603.1L353.8,400l366.6-203.1c12.1-6.7,16.4-21.9,9.8-34c-6.7-12.1-21.9-16.4-34-9.8l-154.5,85.6V225
	c0-41.4-33.6-75-75-75h-325c-41.4,0-75,33.6-75,75v58.3c0,9.1,4.9,17.5,12.9,21.9L250.7,400L79.6,494.8c-8,4.4-12.9,12.8-12.9,21.9
	V575c0,41.4,33.6,75,75,75h325c41.4,0,75-33.6,75-75v-13.8l154.5,85.6c3.8,2.1,8,3.1,12.1,3.1c8.8,0,17.3-4.7,21.9-12.9
	C736.9,625,732.5,609.8,720.4,603.1z M116.7,268.6V225c0-13.8,11.2-25,25-25h325c13.8,0,25,11.2,25,25v39.6c0,0.6,0,1.2,0.1,1.8
	l-189.5,105L116.7,268.6z M491.7,535.4V575c0,13.8-11.2,25-25,25h-325c-13.8,0-25-11.2-25-25v-43.6l185.6-102.8l189.5,105
	C491.7,534.2,491.7,534.8,491.7,535.4z"/>
</svg>
