<?xml version="1.0" encoding="utf-8"?>
<svg version="1.1" id="Camada_1" xmlns="http://www.w3.org/2000/svg" xmlns:xlink="http://www.w3.org/1999/xlink" x="0px" y="0px"
     viewBox="0 0 128 128" style="enable-background:new 0 0 128 128;" xml:space="preserve">
<style>
    path { fill: #ffffff; } /* Branco por padrão */
    @media (prefers-color-scheme: light) {
        path { fill: #000000; } /* Preto se o sistema estiver em Light Mode */
    }
</style>
<g>
    <path d="M63,46.9c-1.9-4.8-5.1-8.4-9.6-11c-4.5-2.6-10-3.8-16.5-3.8h-6.3H20h-6.9L2.6,95.9h7.1h10.2h9.3c6.5,0,12.1-1.3,17-3.8
        c4.8-2.5,8.7-6.2,11.8-11c3-4.8,5.1-10.5,6.2-17.1C65.3,57.4,64.9,51.7,63,46.9z M46.8,64c-0.7,4.4-1.9,7.9-3.5,10.4
        c-1.6,2.5-3.6,4.3-6,5.3c-2.4,1-5.2,1.5-8.4,1.5h-6.6l5.7-34.4h6.4c3.3,0,6.1,0.5,8.1,1.5c2.1,1,3.5,2.8,4.2,5.3
        C47.5,56.1,47.5,59.6,46.8,64z"/>
    <path d="M106.5,95.9h18.9l-10.9-63.9H90.9L59.6,95.9h20.1l5.5-12.3h19.7L106.5,95.9z M100.8,46.2c0.2,2.7,0.4,5.5,0.6,8.2
        c0.4,5.6,1,11.1,1.7,16.3H91c2.4-5.2,4.6-10.7,6.7-16.3C98.8,51.7,99.8,48.9,100.8,46.2z"/>
</g>
</svg>
